<svg width="23" height="17" viewBox="0 0 23 17" fill="none" xmlns="http://www.w3.org/2000/svg">
<path d="M1.15 0H21.85C22.155 0 22.4475 0.0995036 22.6632 0.276621C22.8788 0.453739 23 0.693962 23 0.944444V16.0556C23 16.306 22.8788 16.5463 22.6632 16.7234C22.4475 16.9005 22.155 17 21.85 17H1.15C0.845001 17 0.552494 16.9005 0.336827 16.7234C0.12116 16.5463 0 16.306 0 16.0556V0.944444C0 0.693962 0.12116 0.453739 0.336827 0.276621C0.552494 0.0995036 0.845001 0 1.15 0ZM20.7 4.00256L11.5828 10.7081L2.3 3.98178V15.1111H20.7V4.00256ZM2.88765 1.88889L11.5701 8.18078L20.1273 1.88889H2.88765Z" fill="#CCCCCC"/>
</svg>
